# xmcd CD database file
#
# Track frame offsets:
#	150
#	18841
#	38076
#	57183
#	76452
#	95142
#	114377
#	133484
#
# Disc length: 2034 seconds
#
# Revision: 2
# Processed by: cddbd v1.5.2PL0 Copyright (c) Steve Scherf et al.
# Submitted via: CDex 1.70beta2
#
DISCID=6607f008
DTITLE=Various Artist - SC7762
DYEAR=1900
DGENRE=Karaoke
TTITLE0=Shania Twain - Man! I Feel Like A Woman
TTITLE1=Faith Hill - Breathe
TTITLE2=Dixie Chicks - Ready To Run
TTITLE3=Trisha Yearwood - Real Live Woman
TTITLE4=Shania Twain - Vocal
TTITLE5=Faith Hill - Vocal
TTITLE6=Dixie Chicks - Vocal
TTITLE7=Trisha Yearwood - Vocal
EXTD=
EXTT0=
EXTT1=
EXTT2=
EXTT3=
EXTT4=
EXTT5=
EXTT6=
EXTT7=
PLAYORDER=
